# xmcd
#
# Track frame offsets:
#	150
#	11122
#	25067
#	41746
#	58104
#	72658
#	91220
#	105241
#	120695
#	135942
#	153790
#	170388
#
# Disc length: 2495 seconds
#
# Revision: 1
# Processed by: cddbd v1.5.2PL0 Copyright (c) Steve Scherf et al.
# Submitted via: audiograbber 1.83.01
#
DISCID=9309bd0c
DTITLE=Pamela Juelharte - Family Album
DYEAR=2008
DGENRE=Americana
TTITLE0=Rocky Mountain Farm
TTITLE1=One More Reason
TTITLE2=Daddy Don't Go
TTITLE3=Growing Pains
TTITLE4=Mom's Song
TTITLE5=Grandpa's Pictures
TTITLE6=Moments
TTITLE7=Walk Through My Pain
TTITLE8=Waltz With Me
TTITLE9=Lonely Boy
TTITLE10=This Season
TTITLE11=Between A Mother and A Job
EXTD=
EXTT0=
EXTT1=
EXTT2=
EXTT3=
EXTT4=
EXTT5=
EXTT6=
EXTT7=
EXTT8=
EXTT9=
EXTT10=
EXTT11=
PLAYORDER=
